<svg width="48" height="48" viewBox="0 0 48 48" fill="none" xmlns="http://www.w3.org/2000/svg">
<path d="M24 0C10.7419 0 0 10.7419 0 24C0 37.2581 10.7419 48 24 48C37.2581 48 48 37.2581 48 24C48 10.7419 37.2581 0 24 0ZM37.9355 26.7097C37.9355 27.3484 37.4129 27.871 36.7742 27.871H27.871V36.7742C27.871 37.4129 27.3484 37.9355 26.7097 37.9355H21.2903C20.6516 37.9355 20.129 37.4129 20.129 36.7742V27.871H11.2258C10.5871 27.871 10.0645 27.3484 10.0645 26.7097V21.2903C10.0645 20.6516 10.5871 20.129 11.2258 20.129H20.129V11.2258C20.129 10.5871 20.6516 10.0645 21.2903 10.0645H26.7097C27.3484 10.0645 27.871 10.5871 27.871 11.2258V20.129H36.7742C37.4129 20.129 37.9355 20.6516 37.9355 21.2903V26.7097Z" fill="#E1BEE7"/>
</svg>
