<svg width="52" height="52" viewBox="0 0 52 52" fill="none" xmlns="http://www.w3.org/2000/svg">
<path d="M26 52C11.6371 52 0 40.3629 0 26C0 11.6371 11.6371 0 26 0C40.3629 0 52 11.6371 52 26C52 40.3629 40.3629 52 26 52ZM29.0298 36.9452L21.1145 29.3548H40.2581C41.6524 29.3548 42.7742 28.2331 42.7742 26.8387V25.1613C42.7742 23.7669 41.6524 22.6452 40.2581 22.6452H21.1145L29.0298 15.0548C30.0468 14.0798 30.0677 12.4548 29.0718 11.4589L27.9185 10.3161C26.9331 9.33065 25.3395 9.33065 24.3645 10.3161L10.4524 24.2177C9.46693 25.2032 9.46693 26.7968 10.4524 27.7718L24.3645 41.6839C25.35 42.6694 26.9435 42.6694 27.9185 41.6839L29.0718 40.5411C30.0677 39.5452 30.0468 37.9202 29.0298 36.9452Z" fill="#8D63D7"/>
</svg>
